<mxfile host="app.diagrams.net" modified="2022-01-28T15:20:41.498Z" agent="5.0 (Windows NT 10.0; Win64; x64) AppleWebKit/537.36 (KHTML, like Gecko) Chrome/97.0.4692.99 Safari/537.36" etag="YKEb5YFTm5FXKMapyk15" version="16.4.7" type="github">
  <diagram id="R2lEEEUBdFMjLlhIrx00" name="Page-1">
    <mxGraphModel dx="1185" dy="635" grid="1" gridSize="10" guides="1" tooltips="1" connect="1" arrows="1" fold="1" page="1" pageScale="1" pageWidth="850" pageHeight="1100" math="0" shadow="0" extFonts="Permanent Marker^https://fonts.googleapis.com/css?family=Permanent+Marker">
      <root>
        <mxCell id="0" />
        <mxCell id="1" parent="0" />
        <mxCell id="Q8L-bJ-SnxmV-JxME6ek-1" value="Regular User" style="rounded=0;whiteSpace=wrap;html=1;" vertex="1" parent="1">
          <mxGeometry x="250" y="310" width="80" height="50" as="geometry" />
        </mxCell>
        <mxCell id="Q8L-bJ-SnxmV-JxME6ek-2" value="&lt;u&gt;Email&lt;/u&gt;" style="ellipse;whiteSpace=wrap;html=1;" vertex="1" parent="1">
          <mxGeometry x="170" y="230" width="70" height="40" as="geometry" />
        </mxCell>
        <mxCell id="Q8L-bJ-SnxmV-JxME6ek-4" value="" style="endArrow=none;html=1;rounded=0;entryX=0.5;entryY=1;entryDx=0;entryDy=0;exitX=0.25;exitY=0;exitDx=0;exitDy=0;" edge="1" parent="1" source="Q8L-bJ-SnxmV-JxME6ek-1" target="Q8L-bJ-SnxmV-JxME6ek-2">
          <mxGeometry width="50" height="50" relative="1" as="geometry">
            <mxPoint x="420" y="460" as="sourcePoint" />
            <mxPoint x="470" y="410" as="targetPoint" />
          </mxGeometry>
        </mxCell>
        <mxCell id="Q8L-bJ-SnxmV-JxME6ek-5" value="" style="endArrow=none;html=1;rounded=0;entryX=0.75;entryY=0;entryDx=0;entryDy=0;exitX=0.5;exitY=1;exitDx=0;exitDy=0;" edge="1" parent="1" source="Q8L-bJ-SnxmV-JxME6ek-6" target="Q8L-bJ-SnxmV-JxME6ek-1">
          <mxGeometry width="50" height="50" relative="1" as="geometry">
            <mxPoint x="420" y="460" as="sourcePoint" />
            <mxPoint x="470" y="410" as="targetPoint" />
          </mxGeometry>
        </mxCell>
        <mxCell id="Q8L-bJ-SnxmV-JxME6ek-6" value="passowrd" style="ellipse;whiteSpace=wrap;html=1;" vertex="1" parent="1">
          <mxGeometry x="310" y="230" width="70" height="45" as="geometry" />
        </mxCell>
        <mxCell id="Q8L-bJ-SnxmV-JxME6ek-7" value="&lt;div&gt;&lt;span style=&quot;font-size: 11pt ; font-family: &amp;#34;calibri&amp;#34;&quot;&gt;First name&lt;/span&gt;&lt;/div&gt;" style="ellipse;whiteSpace=wrap;html=1;" vertex="1" parent="1">
          <mxGeometry x="380" y="330" width="80" height="40" as="geometry" />
        </mxCell>
        <mxCell id="Q8L-bJ-SnxmV-JxME6ek-8" value="&lt;div&gt;&lt;span style=&quot;font-size: 11pt ; font-family: &amp;#34;calibri&amp;#34;&quot;&gt;Last name&lt;/span&gt;&lt;/div&gt;" style="ellipse;whiteSpace=wrap;html=1;" vertex="1" parent="1">
          <mxGeometry x="390" y="370" width="80" height="40" as="geometry" />
        </mxCell>
        <mxCell id="Q8L-bJ-SnxmV-JxME6ek-9" value="&lt;div&gt;&lt;span style=&quot;font-size: 11pt ; font-family: &amp;#34;calibri&amp;#34;&quot;&gt;Nick name&lt;/span&gt;&lt;/div&gt;" style="ellipse;whiteSpace=wrap;html=1;" vertex="1" parent="1">
          <mxGeometry x="390" y="420" width="80" height="40" as="geometry" />
        </mxCell>
        <mxCell id="Q8L-bJ-SnxmV-JxME6ek-10" value="&lt;div&gt;&lt;span style=&quot;font-size: 11pt ; font-family: &amp;#34;calibri&amp;#34;&quot;&gt;Phone&lt;/span&gt;&lt;/div&gt;" style="ellipse;whiteSpace=wrap;html=1;" vertex="1" parent="1">
          <mxGeometry x="120" y="400" width="80" height="40" as="geometry" />
        </mxCell>
        <mxCell id="Q8L-bJ-SnxmV-JxME6ek-11" value="&lt;div&gt;&lt;span style=&quot;font-size: 11pt ; font-family: &amp;#34;calibri&amp;#34;&quot;&gt;Phone Number&lt;/span&gt;&lt;/div&gt;" style="ellipse;whiteSpace=wrap;html=1;" vertex="1" parent="1">
          <mxGeometry x="30" y="460" width="80" height="40" as="geometry" />
        </mxCell>
        <mxCell id="Q8L-bJ-SnxmV-JxME6ek-12" value="&lt;div&gt;&lt;span style=&quot;font-size: 11pt ; font-family: &amp;#34;calibri&amp;#34;&quot;&gt;Type&lt;/span&gt;&lt;/div&gt;" style="ellipse;whiteSpace=wrap;html=1;" vertex="1" parent="1">
          <mxGeometry x="130" y="460" width="80" height="40" as="geometry" />
        </mxCell>
        <mxCell id="Q8L-bJ-SnxmV-JxME6ek-13" value="&lt;font face=&quot;calibri&quot;&gt;&lt;span style=&quot;font-size: 14.6667px&quot;&gt;IsShare&lt;/span&gt;&lt;/font&gt;" style="ellipse;whiteSpace=wrap;html=1;" vertex="1" parent="1">
          <mxGeometry x="230" y="440" width="80" height="40" as="geometry" />
        </mxCell>
        <mxCell id="Q8L-bJ-SnxmV-JxME6ek-14" value="" style="endArrow=none;html=1;rounded=0;entryX=0;entryY=1;entryDx=0;entryDy=0;exitX=1;exitY=0.75;exitDx=0;exitDy=0;" edge="1" parent="1" source="Q8L-bJ-SnxmV-JxME6ek-1" target="Q8L-bJ-SnxmV-JxME6ek-7">
          <mxGeometry width="50" height="50" relative="1" as="geometry">
            <mxPoint x="420" y="450" as="sourcePoint" />
            <mxPoint x="470" y="400" as="targetPoint" />
          </mxGeometry>
        </mxCell>
        <mxCell id="Q8L-bJ-SnxmV-JxME6ek-15" value="" style="endArrow=none;html=1;rounded=0;" edge="1" parent="1" target="Q8L-bJ-SnxmV-JxME6ek-8">
          <mxGeometry width="50" height="50" relative="1" as="geometry">
            <mxPoint x="330" y="360" as="sourcePoint" />
            <mxPoint x="401.7157287525381" y="374.14213562373106" as="targetPoint" />
          </mxGeometry>
        </mxCell>
        <mxCell id="Q8L-bJ-SnxmV-JxME6ek-18" value="" style="endArrow=none;html=1;rounded=0;entryX=0;entryY=1;entryDx=0;entryDy=0;" edge="1" parent="1" target="Q8L-bJ-SnxmV-JxME6ek-10">
          <mxGeometry relative="1" as="geometry">
            <mxPoint x="80" y="460" as="sourcePoint" />
            <mxPoint x="520" y="430" as="targetPoint" />
          </mxGeometry>
        </mxCell>
        <mxCell id="Q8L-bJ-SnxmV-JxME6ek-19" value="" style="endArrow=none;html=1;rounded=0;entryX=0.5;entryY=1;entryDx=0;entryDy=0;" edge="1" parent="1" source="Q8L-bJ-SnxmV-JxME6ek-12" target="Q8L-bJ-SnxmV-JxME6ek-10">
          <mxGeometry relative="1" as="geometry">
            <mxPoint x="90" y="470" as="sourcePoint" />
            <mxPoint x="150" y="444" as="targetPoint" />
          </mxGeometry>
        </mxCell>
        <mxCell id="Q8L-bJ-SnxmV-JxME6ek-20" value="" style="endArrow=none;html=1;rounded=0;entryX=1;entryY=0.5;entryDx=0;entryDy=0;exitX=0;exitY=0;exitDx=0;exitDy=0;" edge="1" parent="1" source="Q8L-bJ-SnxmV-JxME6ek-13" target="Q8L-bJ-SnxmV-JxME6ek-10">
          <mxGeometry relative="1" as="geometry">
            <mxPoint x="175.0386106164317" y="470.154442465727" as="sourcePoint" />
            <mxPoint x="170" y="450" as="targetPoint" />
          </mxGeometry>
        </mxCell>
        <mxCell id="Q8L-bJ-SnxmV-JxME6ek-21" value="" style="endArrow=none;html=1;rounded=0;entryX=1;entryY=0;entryDx=0;entryDy=0;" edge="1" parent="1" source="Q8L-bJ-SnxmV-JxME6ek-1" target="Q8L-bJ-SnxmV-JxME6ek-10">
          <mxGeometry relative="1" as="geometry">
            <mxPoint x="251.7157287525381" y="455.85786437626894" as="sourcePoint" />
            <mxPoint x="210" y="430" as="targetPoint" />
          </mxGeometry>
        </mxCell>
        <mxCell id="Q8L-bJ-SnxmV-JxME6ek-24" value="" style="endArrow=none;html=1;rounded=0;entryX=0;entryY=0;entryDx=0;entryDy=0;" edge="1" parent="1" target="Q8L-bJ-SnxmV-JxME6ek-9">
          <mxGeometry width="50" height="50" relative="1" as="geometry">
            <mxPoint x="310" y="360" as="sourcePoint" />
            <mxPoint x="405.7002829714993" y="389.7100848914498" as="targetPoint" />
          </mxGeometry>
        </mxCell>
        <mxCell id="Q8L-bJ-SnxmV-JxME6ek-27" value="&lt;p style=&quot;line-height: 1&quot;&gt;item&lt;/p&gt;" style="shape=ext;double=1;rounded=0;whiteSpace=wrap;html=1;" vertex="1" parent="1">
          <mxGeometry x="310" y="520" width="90" height="60" as="geometry" />
        </mxCell>
        <mxCell id="Q8L-bJ-SnxmV-JxME6ek-28" value="" style="endArrow=none;html=1;rounded=0;entryX=0.5;entryY=1;entryDx=0;entryDy=0;" edge="1" parent="1" target="Q8L-bJ-SnxmV-JxME6ek-1">
          <mxGeometry width="50" height="50" relative="1" as="geometry">
            <mxPoint x="340" y="440" as="sourcePoint" />
            <mxPoint x="470" y="560" as="targetPoint" />
            <Array as="points">
              <mxPoint x="310" y="390" />
            </Array>
          </mxGeometry>
        </mxCell>
        <mxCell id="Q8L-bJ-SnxmV-JxME6ek-29" value="has" style="rhombus;whiteSpace=wrap;html=1;" vertex="1" parent="1">
          <mxGeometry x="310" y="440" width="60" height="50" as="geometry" />
        </mxCell>
        <mxCell id="Q8L-bJ-SnxmV-JxME6ek-30" value="" style="endArrow=none;html=1;rounded=0;entryX=0.5;entryY=1;entryDx=0;entryDy=0;exitX=0.5;exitY=0;exitDx=0;exitDy=0;" edge="1" parent="1" source="Q8L-bJ-SnxmV-JxME6ek-27" target="Q8L-bJ-SnxmV-JxME6ek-29">
          <mxGeometry width="50" height="50" relative="1" as="geometry">
            <mxPoint x="360" y="610" as="sourcePoint" />
            <mxPoint x="470" y="560" as="targetPoint" />
          </mxGeometry>
        </mxCell>
        <mxCell id="Q8L-bJ-SnxmV-JxME6ek-39" value="" style="edgeStyle=orthogonalEdgeStyle;startArrow=none;endArrow=none;rounded=0;targetPortConstraint=eastwest;sourcePortConstraint=northsouth;" edge="1" target="Q8L-bJ-SnxmV-JxME6ek-41" parent="1">
          <mxGeometry relative="1" as="geometry">
            <mxPoint x="345" y="580" as="sourcePoint" />
          </mxGeometry>
        </mxCell>
        <mxCell id="Q8L-bJ-SnxmV-JxME6ek-40" value="" style="edgeStyle=orthogonalEdgeStyle;startArrow=none;endArrow=none;rounded=0;targetPortConstraint=eastwest;sourcePortConstraint=northsouth;entryX=0.7;entryY=0;entryDx=0;entryDy=0;entryPerimeter=0;" edge="1" target="Q8L-bJ-SnxmV-JxME6ek-44" parent="1" source="Q8L-bJ-SnxmV-JxME6ek-46">
          <mxGeometry relative="1" as="geometry">
            <mxPoint x="345" y="580" as="sourcePoint" />
            <Array as="points">
              <mxPoint x="345" y="710" />
            </Array>
          </mxGeometry>
        </mxCell>
        <mxCell id="Q8L-bJ-SnxmV-JxME6ek-41" value="Sub Section" style="whiteSpace=wrap;html=1;align=center;verticalAlign=middle;treeFolding=1;treeMoving=1;" vertex="1" parent="1">
          <mxGeometry x="200" y="620" width="100" height="60" as="geometry" />
        </mxCell>
        <mxCell id="Q8L-bJ-SnxmV-JxME6ek-42" value="Sub Section" style="whiteSpace=wrap;html=1;align=center;verticalAlign=middle;treeFolding=1;treeMoving=1;" vertex="1" collapsed="1" parent="1">
          <mxGeometry x="375" y="620" width="100" height="60" as="geometry" />
        </mxCell>
        <mxCell id="Q8L-bJ-SnxmV-JxME6ek-44" value="Sub Section" style="whiteSpace=wrap;html=1;align=center;verticalAlign=middle;treeFolding=1;treeMoving=1;" vertex="1" collapsed="1" parent="1">
          <mxGeometry x="290" y="710" width="100" height="60" as="geometry" />
        </mxCell>
        <mxCell id="Q8L-bJ-SnxmV-JxME6ek-45" value="" style="endArrow=none;html=1;rounded=0;entryX=0;entryY=0.5;entryDx=0;entryDy=0;exitX=0.389;exitY=1.028;exitDx=0;exitDy=0;exitPerimeter=0;startArrow=none;" edge="1" parent="1" source="Q8L-bJ-SnxmV-JxME6ek-46" target="Q8L-bJ-SnxmV-JxME6ek-42">
          <mxGeometry width="50" height="50" relative="1" as="geometry">
            <mxPoint x="420" y="610" as="sourcePoint" />
            <mxPoint x="470" y="560" as="targetPoint" />
            <Array as="points">
              <mxPoint x="345" y="650" />
            </Array>
          </mxGeometry>
        </mxCell>
        <mxCell id="Q8L-bJ-SnxmV-JxME6ek-48" value="" style="edgeStyle=orthogonalEdgeStyle;startArrow=none;endArrow=none;rounded=0;targetPortConstraint=eastwest;sourcePortConstraint=northsouth;entryX=0.5;entryY=0;entryDx=0;entryDy=0;" edge="1" parent="1" target="Q8L-bJ-SnxmV-JxME6ek-46">
          <mxGeometry relative="1" as="geometry">
            <mxPoint x="345" y="580" as="sourcePoint" />
            <mxPoint x="360" y="710" as="targetPoint" />
            <Array as="points" />
          </mxGeometry>
        </mxCell>
        <mxCell id="Q8L-bJ-SnxmV-JxME6ek-46" value="" style="ellipse;whiteSpace=wrap;html=1;aspect=fixed;" vertex="1" parent="1">
          <mxGeometry x="332.5" y="637.5" width="25" height="25" as="geometry" />
        </mxCell>
        <mxCell id="Q8L-bJ-SnxmV-JxME6ek-49" value="" style="endArrow=none;html=1;rounded=0;entryX=0.5;entryY=0;entryDx=0;entryDy=0;exitX=0.389;exitY=1.028;exitDx=0;exitDy=0;exitPerimeter=0;" edge="1" parent="1" source="Q8L-bJ-SnxmV-JxME6ek-27" target="Q8L-bJ-SnxmV-JxME6ek-46">
          <mxGeometry width="50" height="50" relative="1" as="geometry">
            <mxPoint x="345.01" y="581.6800000000001" as="sourcePoint" />
            <mxPoint x="375" y="650" as="targetPoint" />
            <Array as="points" />
          </mxGeometry>
        </mxCell>
        <mxCell id="Q8L-bJ-SnxmV-JxME6ek-51" value="has" style="rhombus;whiteSpace=wrap;html=1;" vertex="1" parent="1">
          <mxGeometry x="315" y="445" width="50" height="40" as="geometry" />
        </mxCell>
      </root>
    </mxGraphModel>
  </diagram>
</mxfile>
